<svg id="Layer_1" data-name="Layer 1" xmlns="http://www.w3.org/2000/svg" xmlns:xlink="http://www.w3.org/1999/xlink" viewBox="0 0 2377 643.37"><defs><style>.cls-1{fill:none;}.cls-2{clip-path:url(#clip-path);}.cls-3{fill:#3492d1;}</style><clipPath id="clip-path" transform="translate(0 0)"><rect class="cls-1" width="2376.96" height="643.36"/></clipPath></defs><title>color_with_background</title><g class="cls-2"><rect width="2377" height="643.37"/></g><path class="cls-3" d="M385.86,402.41h51.56c13.22,0,20.82-5.62,32.72-56.49H484s-2.64,36.34-2.64,54.51V417.6H306.21V403.4h29.42v-190H306.21V199.23H415.28v14.21H385.86v189ZM524,327.74V213.43H494.6V199.23H604v14.21H574.58V336c0,40,7.93,70.37,53.21,70.37,41,0,60.48-24.12,60.48-71V213.43H657.87V199.23h79.65v14.21H707.11V336c0,55.5-24.13,86.23-84.94,86.23-70.4,0-98.16-32-98.16-94.49Zm231-18.83c0-70.7,38.67-114.31,108.08-114.31,27.76,0,45.28,6.94,57.18,18.83l8.92-15.86h14.54s-6.28,31.39-6.28,45.59v24.45H919.3v-15.2c0-24.78-21.48-42.29-51.89-42.29-50.9,0-59.16,49.56-59.16,100.1,0,50.88,8.26,96.47,57.51,96.47,33.38,0,55.53-20.81,61.81-51.54l17.52,2.64c-7.93,35.68-30.08,64.42-85.27,64.42-71.39,0-104.77-47.9-104.77-113.32ZM964.25,417.6V403.4h29.42v-190H964.25V199.23h109.07v14.21H1043.9v190h29.42V417.6Zm130.22,0V403.4h29.42v-190h-29.42V199.23h110.39c86.26,0,116,41.63,116,105.72,0,62.44-26.77,112.66-116,112.66Zm111.05-203.18h-31.73v188h31.73c44.29,0,62.14-29.4,62.14-93.83,0-69-17.85-94.16-62.14-94.16ZM1345,417.6V403.4h29.42v-190H1345V199.23h109.07v14.21h-29.42v190h29.42V417.6Zm113.36,0V403.4h27.43l75.69-207.47H1578l86.26,207.47h22.81V417.6h-97.83V403.4h22.14l-21.15-51.21h-66.76l-18.84,51.21h24.13V417.6ZM1554.87,266l-25.78,70.37h54.53L1554.87,266ZM1759.13,417.6V403.4h23.47V281.82h-26.44V267.61h73.37V403.4H1853V417.6Zm153,0V403.4h29.42v-189h-32.39c-14.54,0-17.52,4.29-30.74,53.85h-14.21s2-33.37,2-49.56V199.23H2070.8l-4.3,69h-13.22L2045,238.54c-5.95-21.47-9.92-24.12-19.17-24.12h-34v189h29.42V417.6H1912.15Z" transform="translate(0 0)"/><path class="cls-3" d="M1801.65,184.41a21.58,21.58,0,1,1,0,43.16c-12,0-22.79-9.59-22.79-21.58s10.79-21.58,22.79-21.58Z" transform="translate(0 0)"/><path class="cls-3" d="M1793.26,238.31a123.42,123.42,0,0,1-3.69,11.78c-2.21,6.63-4.42,11-5.16,11,0-.74,1.47-5.89,3.69-12.52,2.21-5.89,4.42-11,5.16-10.31Z" transform="translate(0 0)"/><path class="cls-3" d="M1811.14,237.15a121.26,121.26,0,0,1,6.29,11.57c3.93,6.61,5.5,12.4,4.71,12.4,0,0-3.14-5.79-6.29-12.4-3.93-6.61-5.5-11.57-4.71-11.57Z" transform="translate(0 0)"/><path class="cls-3" d="M1825.64,224c.85,0,5.94,3.37,11.88,7.57,5.94,5,11,9.26,10.18,9.26-.85.84-5.94-3.37-11.88-7.57-5.94-5-10.18-9.26-10.18-9.26Z" transform="translate(0 0)"/><path class="cls-3" d="M1834,204.79a73.1,73.1,0,0,1,12.73-1.2c6.74,0,12,0,11.24,1.2a73.1,73.1,0,0,1-12.73,1.2c-6.74,0-12,0-11.24-1.2Z" transform="translate(0 0)"/><path class="cls-3" d="M1746.4,204.79a73.1,73.1,0,0,1,12.73-1.2c6.74,0,12,0,11.24,1.2a73.1,73.1,0,0,1-12.73,1.2c-6.74,0-12,0-11.24-1.2Z" transform="translate(0 0)"/><path class="cls-3" d="M1776.47,225.12s-4.42,5.13-9.72,11.12-9.72,10.26-10.6,9.41c0-.86,4.42-6,9.72-12,5.3-5.13,9.72-9.41,10.6-8.55Z" transform="translate(0 0)"/><path class="cls-3" d="M1821.66,152.35s-1.84,5.11-3.69,11.08c-2.77,6-4.61,11.08-5.53,10.23a66.78,66.78,0,0,1,3.69-11.93c2.77-6,4.61-10.23,5.53-9.37Z" transform="translate(0 0)"/><path class="cls-3" d="M1853,177.08s-5.48,2.58-11.88,5.17c-7.31,2.58-11.88,4.31-11.88,3.45s5.48-2.58,11.88-5.17,11.88-4.31,11.88-3.45Z" transform="translate(0 0)"/><path class="cls-3" d="M1753.31,173.71c0-1,5.34,2,12.47,5,6.23,4,10.69,7,10.69,7-.89,1-6.23-2-12.47-5s-11.58-7-10.69-7Z" transform="translate(0 0)"/><path class="cls-3" d="M1784.86,152.39c1.2,0,3.6,5.17,6,11.21,2.4,6.9,4.8,11.21,3.6,11.21s-3.6-5.17-6-11.21c-3.6-6-4.8-11.21-3.6-11.21Z" transform="translate(0 0)"/><path class="cls-3" d="M1801.65,184.41a21.58,21.58,0,1,1,0,43.16c-12,0-22.79-9.59-22.79-21.58s10.79-21.58,22.79-21.58Z" transform="translate(0 0)"/><polygon class="cls-3" points="1635.23 199.38 1635.36 206.37 1639.51 208.76 1635.04 211.72 1634.73 217.08 1630.57 214.68 1624.46 218.08 1624.34 211.09 1619.14 208.1 1623.61 205.14 1623.93 199.79 1629.12 202.78 1635.23 199.38 1635.23 199.38"/><path class="cls-3" d="M1620.22,62.07a7.19,7.19,0,1,0-4.37,3.36,6.93,6.93,0,0,0,4.37-3.36Z" transform="translate(0 0)"/><polygon class="cls-3" points="1912.17 158.31 1912.9 164.26 1917.06 166.66 1912.58 169.61 1912.27 174.97 1908.11 172.57 1902.6 174.93 1902.91 169.58 1897.72 166.59 1902.19 163.63 1902.51 158.28 1907.7 161.27 1912.17 158.31 1912.17 158.31"/><polygon class="cls-3" points="1735.54 92.53 1735.07 100.56 1740.26 103.55 1734.75 105.91 1734.88 112.9 1729.68 109.91 1723.57 113.3 1723.44 106.31 1717.21 102.72 1723.32 99.32 1722.6 93.37 1728.83 96.97 1735.54 92.53 1735.54 92.53"/><polygon class="cls-3" points="1701.81 35.75 1701.78 45.41 1708.02 49.01 1701.31 53.44 1700.84 61.47 1694.6 57.88 1686.26 62.76 1686.29 53.09 1679.01 48.9 1685.72 44.46 1686.19 36.43 1693.47 40.62 1701.81 35.75 1701.81 35.75"/><polygon class="cls-3" points="1794.37 115.35 1794.33 125.01 1800.57 128.61 1793.86 133.04 1793.39 141.07 1787.15 137.48 1779.4 141.32 1778.84 132.69 1771.56 128.5 1778.27 124.06 1778.74 116.03 1786.02 120.22 1794.37 115.35 1794.37 115.35"/><polygon class="cls-3" points="1655.61 108.74 1656.78 116.33 1661.97 119.32 1655.86 122.72 1656.59 128.67 1651.39 125.68 1643.64 129.52 1644.12 121.49 1638.92 118.5 1644.43 116.14 1644.31 109.15 1649.5 112.14 1655.61 108.74 1655.61 108.74"/><polygon class="cls-3" points="1854.64 104.42 1855.21 113.04 1862.48 117.23 1855.77 121.67 1855.3 129.7 1848.03 125.51 1839.68 130.38 1839.71 120.72 1833.48 117.13 1840.19 112.69 1840.66 104.66 1846.89 108.25 1854.64 104.42 1854.64 104.42"/><polygon class="cls-3" points="1676.11 207.71 1675.63 215.74 1681.87 219.33 1675.16 223.77 1675.29 230.76 1669.05 227.16 1662.35 231.6 1661.78 222.97 1655.54 219.38 1661.65 215.99 1662.13 207.96 1668.36 211.55 1676.11 207.71 1676.11 207.71"/><polygon class="cls-3" points="1764.67 53.97 1765.24 62.6 1770.43 65.59 1764.32 68.99 1765.05 74.94 1759.85 71.95 1752.11 75.78 1752.58 67.76 1746.34 64.17 1751.85 61.8 1751.73 54.82 1757.96 58.41 1764.67 53.97 1764.67 53.97"/><polygon class="cls-3" points="1681.9 164.01 1682.03 171 1688.27 174.59 1682.75 176.95 1682.88 183.94 1676.64 180.35 1670.54 183.75 1670.41 176.76 1665.21 173.76 1671.32 170.37 1670.6 164.41 1675.8 167.41 1681.9 164.01 1681.9 164.01"/><polygon class="cls-3" points="1598.3 124.15 1598.86 132.78 1604.06 135.77 1597.95 139.17 1598.07 146.16 1592.88 143.16 1585.73 145.96 1585.6 138.97 1579.37 135.38 1585.48 131.98 1585.35 124.99 1591.59 128.58 1598.3 124.15 1598.3 124.15"/><path class="cls-3" d="M1893.85,122.86a9.59,9.59,0,1,0-5.82,4.47,9.24,9.24,0,0,0,5.82-4.47Z" transform="translate(0 0)"/><path class="cls-3" d="M1738.43,162a12,12,0,1,0-7.28,5.59,11.55,11.55,0,0,0,7.28-5.59Z" transform="translate(0 0)"/><path class="cls-3" d="M1666.38,90a9.59,9.59,0,1,0-5.82,4.47,9.24,9.24,0,0,0,5.82-4.47Z" transform="translate(0 0)"/><path class="cls-3" d="M1742.56,37.09A9.59,9.59,0,0,0,1739,24,9.59,9.59,0,0,0,1725,34.79a9.59,9.59,0,0,0,17.58,2.3Z" transform="translate(0 0)"/><path class="cls-3" d="M1799.22,42.06a9.59,9.59,0,0,0-3.53-13.1,9.59,9.59,0,0,0-14.05,10.8,9.59,9.59,0,0,0,17.58,2.3Z" transform="translate(0 0)"/><path class="cls-3" d="M1841.35,74.63a6,6,0,1,0-3.64,2.8,5.77,5.77,0,0,0,3.64-2.8Z" transform="translate(0 0)"/><path class="cls-3" d="M1893.28,68.57a4.8,4.8,0,1,0-2.91,2.24,4.62,4.62,0,0,0,2.91-2.24Z" transform="translate(0 0)"/><path class="cls-3" d="M1371.61,543.09q-2.26,3.76-4.79,7.19a57.07,57.07,0,0,1-5.55,6.44q-2.44,2.45-4.84,4.89a22,22,0,0,1-5.41,4,35.26,35.26,0,0,1-7.71,3.29q-4.14,1.22-8.18,2.07a36.46,36.46,0,0,1-7.52.75,25.94,25.94,0,0,1-7.43-1,13.16,13.16,0,0,1-5.64-3.48,7.72,7.72,0,0,1-2.16-6,10.91,10.91,0,0,1,.71-3.29,5.76,5.76,0,0,1,2-2.63,5.34,5.34,0,0,1,6.77.94,5.48,5.48,0,0,1,1.13,2.4,4.51,4.51,0,0,1-.19,2.58,2.7,2.7,0,0,1-.8,1.27l-.94.75a1.35,1.35,0,0,0-.52.85,3.06,3.06,0,0,0,.47,1.65,5.66,5.66,0,0,0,2.26,2.49,9.34,9.34,0,0,0,3.05,1.08,12.18,12.18,0,0,0,3.38.09,27.18,27.18,0,0,0,3.34-.56,22.18,22.18,0,0,0,6.81-2.73,30.42,30.42,0,0,0,5.59-4.42,44.85,44.85,0,0,0,4.7-5.55q2.16-3,4.14-6.11,1.41-2.44,2.87-4.75t2.77-4.75q1-2.07,2.07-4t2.07-3.85a76.27,76.27,0,0,1,4.28-6.86q2.3-3.29,4.65-6.58a48.06,48.06,0,0,1,5.45-6.44,44.72,44.72,0,0,1,6.58-5.31,33.1,33.1,0,0,1,4.18-2.54,29,29,0,0,1,4.65-1.88,4,4,0,0,0,.75-.09,2.69,2.69,0,0,1,.85,0,.92.92,0,0,1,.61.33,1,1,0,0,1,0,.94,1.18,1.18,0,0,1-.85.66,3.2,3.2,0,0,0-1,.47q-.75.47-1.41.85a6.34,6.34,0,0,0-1.32,1,25.37,25.37,0,0,0-5.12,6.44q-2,3.62-3.9,7.29-2.82,5.55-5.26,11.19A96.17,96.17,0,0,1,1371.61,543.09Zm-31.4.19h-3.34a7.73,7.73,0,0,1-3.34-.75,8.89,8.89,0,0,1-3-2.21,12.44,12.44,0,0,1-2.07-3.06,15,15,0,0,1-1.79-7.61,28.59,28.59,0,0,1,1.22-7.8,29.05,29.05,0,0,1,3.62-7.66,41.65,41.65,0,0,1,5.5-6.67,56.62,56.62,0,0,1,6.63-5.59,65.14,65.14,0,0,1,7.19-4.51,52.71,52.71,0,0,1,7.85-3.34,45.15,45.15,0,0,1,8.32-1.93,49.06,49.06,0,0,1,9.54-.56q4.75.19,9.63.85a63.81,63.81,0,0,1,6.49,1.08q3.19.7,6.39,1.32t6.39,1.08a37.81,37.81,0,0,0,6.58.38,23.62,23.62,0,0,0,3.24-.38,7.91,7.91,0,0,0,3-1.32,2.11,2.11,0,0,1,1.22-.42.66.66,0,0,1,.61.42,1.28,1.28,0,0,1-.09.94,2.73,2.73,0,0,1-.8,1,22.77,22.77,0,0,1-7.24,3.85,33.29,33.29,0,0,1-8.08,1.69,30.73,30.73,0,0,1-9.21-.66q-4.7-1-9.21-1.88-2.82-.56-5.64-1.22t-5.69-1.13q-2.87-.47-5.78-.66a34.92,34.92,0,0,0-5.73.09,31.77,31.77,0,0,0-8.41,2.26,30.86,30.86,0,0,0-7.33,4.37,31.65,31.65,0,0,0-9.92,13.87,40.2,40.2,0,0,0-1.17,4.42,23.49,23.49,0,0,0-.52,4.89,17.2,17.2,0,0,0,.66,4.75,9.52,9.52,0,0,0,2.26,4,8.73,8.73,0,0,0,3.53,2.16,13.58,13.58,0,0,0,4.23.66,16,16,0,0,0,4.37-.61,18,18,0,0,0,3.85-1.55,3.43,3.43,0,0,0,.94-.71,12.3,12.3,0,0,1,1.41-1.13,5,5,0,0,1,1.41-.71q.66-.19.85.38c.13.25,0,.58-.33,1a8.85,8.85,0,0,1-1.22,1.18q-.7.56-1.46,1.08l-1,.71a37.79,37.79,0,0,1-6.77,4A18.23,18.23,0,0,1,1340.22,543.28Z" transform="translate(0 0)"/><path class="cls-3" d="M1418,503.52a4.74,4.74,0,0,1,.47-1.5,1.86,1.86,0,0,1,1.32-.66,34,34,0,0,0,3.48-.61,10.34,10.34,0,0,1,3.48-.24q1.5.19,1.64,1.32a6,6,0,0,1-.33,2.58,14.21,14.21,0,0,1-1.27,2.82l-1.17,2q-3.95,6.77-7.9,13.35t-8.08,13.25q1.6-1.22,3.34-2.59a28.74,28.74,0,0,1,3.57-2.4,14.55,14.55,0,0,1,3.85-1.5,10.42,10.42,0,0,1,4.18-.09,5.38,5.38,0,0,1,2.68,1.13,4.75,4.75,0,0,1,1.41,2A6.75,6.75,0,0,1,1429,535a12.49,12.49,0,0,1-.42,2.77,22.11,22.11,0,0,1-3,6.67q-2.07,3.1-4,6.11-.85,1.41-1.88,2.82t-2,2.91q-1,1.5-1.83,3a15.71,15.71,0,0,0-1.32,3q-.66,2.07.52,2.58a3.12,3.12,0,0,0,2.77-.33,48.25,48.25,0,0,0,9.17-8.18,107.35,107.35,0,0,0,7.57-9.78,1.77,1.77,0,0,1,1.55-.85q.8.1.33,1.5l-5.12,7.05a83,83,0,0,1-5.45,6.77,44.11,44.11,0,0,1-6.3,5.78,28.13,28.13,0,0,1-7.75,4.09,10.64,10.64,0,0,1-2.21.14,5.66,5.66,0,0,1-2.12-.52,4.13,4.13,0,0,1-2.21-2.35,6.81,6.81,0,0,1-.28-3.2,15.74,15.74,0,0,1,.89-3.43,24.66,24.66,0,0,1,1.32-3q1.78-3.57,3.85-6.86t4.23-6.58q.47-.75,1.5-2.3a33.94,33.94,0,0,0,1.93-3.29,11.86,11.86,0,0,0,1.17-3.34,2.49,2.49,0,0,0-.66-2.44,2.2,2.2,0,0,0-2.21,0,19.82,19.82,0,0,0-3.05,1.64,27,27,0,0,0-3,2.21,19.67,19.67,0,0,0-1.93,1.83,64.15,64.15,0,0,0-5.36,7q-2.44,3.67-4.7,7.47t-4.46,7.66q-2.21,3.86-4.65,7.52a3.32,3.32,0,0,1-2.58,1.79h-3.43a5.7,5.7,0,0,0-1.46,0,2.64,2.64,0,0,1-1.46-.19,1,1,0,0,1-.47-1.36,11.88,11.88,0,0,1,.89-2.16,17.73,17.73,0,0,1,1.36-2.21c.5-.69.85-1.19,1-1.5q7.52-12.69,15-25.47t14.57-25.66q1.31-2.16,2.73-4.28A12.36,12.36,0,0,0,1418,503.52Z" transform="translate(0 0)"/><path class="cls-3" d="M1441.45,563.4a3.6,3.6,0,0,0,1.5,2.87,4.55,4.55,0,0,0,2.87.52,11.34,11.34,0,0,0,3.34-.94,19.07,19.07,0,0,0,2.82-1.5,30.65,30.65,0,0,0,5.31-4.18q2.68-2.59,5-5.26t4.23-5q1.88-2.35,3-3.57.66-.75.89-.33a1.62,1.62,0,0,1,0,1.17,14.32,14.32,0,0,1-1.88,3.43,50.2,50.2,0,0,1-3.38,4.28q-2,2.26-4.28,4.61t-4.56,4.32q-2.26,2-4.18,3.48a24,24,0,0,1-3.15,2.16,16.59,16.59,0,0,1-4.09,1.64,15.09,15.09,0,0,1-4.51.52,9.51,9.51,0,0,1-4.14-1.13,7.28,7.28,0,0,1-3.05-3.29,10.25,10.25,0,0,1-1-4.23,18.46,18.46,0,0,1,.47-4.51,26.51,26.51,0,0,1,1.41-4.37,43.19,43.19,0,0,1,1.93-4,40.51,40.51,0,0,1,6.67-9.4,42.09,42.09,0,0,1,9-7.14,27.41,27.41,0,0,1,5.12-2.63,28.17,28.17,0,0,1,5.5-1.5,13,13,0,0,1,3.85-.19,3.8,3.8,0,0,1,3.1,2,4.5,4.5,0,0,1,.75,2.77,9.3,9.3,0,0,1-.66,2.87,12,12,0,0,1-1.46,2.63,18.4,18.4,0,0,1-1.83,2.16,24.68,24.68,0,0,1-5.12,4.23,49.49,49.49,0,0,1-5.78,3.1q-1.6.66-3.15,1.17t-3.24,1a18,18,0,0,1-2.26.28,2.76,2.76,0,0,0-2,.85,5.08,5.08,0,0,0-1.18,2.26,17.94,17.94,0,0,1-.89,2.54,15.28,15.28,0,0,0-1,3.15A10.27,10.27,0,0,0,1441.45,563.4Zm4.61-14.1a11.3,11.3,0,0,0,6-2.07,57.82,57.82,0,0,0,5.12-4,25.48,25.48,0,0,0,2.3-2.21,18.18,18.18,0,0,0,1.93-2.49q.56-1,1.32-2.58a5.5,5.5,0,0,0,.66-2.77q-.1-1-.66-1.22a2.1,2.1,0,0,0-1.41.14,8.63,8.63,0,0,0-1.83,1,21.92,21.92,0,0,0-1.83,1.46q-.85.75-1.5,1.46l-.85.89a49.19,49.19,0,0,0-4.94,6Q1448.13,546,1446.06,549.3Z" transform="translate(0 0)"/><path class="cls-3" d="M1535.64,532.19q-2.63,5.55-5.78,11a83.52,83.52,0,0,1-7,10.34,55.94,55.94,0,0,1-8.69,8.74,38.93,38.93,0,0,1-10.81,6.11,58.34,58.34,0,0,1-6.25,2.07,37.71,37.71,0,0,1-6.91,1.22,27.41,27.41,0,0,1-6.81-.28,15,15,0,0,1-6.16-2.54,9.13,9.13,0,0,1-3.48-4,7.85,7.85,0,0,1-.47-5.22,7.12,7.12,0,0,1,1-2.35,8.6,8.6,0,0,1,1.74-1.93,5.94,5.94,0,0,1,2.21-1.13,4.67,4.67,0,0,1,2.54,0,4.14,4.14,0,0,1,1.83,1.17,5.09,5.09,0,0,1,1,1.83,5.58,5.58,0,0,1,.23,2.16,5.64,5.64,0,0,1-.56,2.07,7.13,7.13,0,0,1-1.5,1.88,1.73,1.73,0,0,0-.38,2.16,3.27,3.27,0,0,0,2.07,1.83,15.29,15.29,0,0,0,2.82.71,16.16,16.16,0,0,0,6.63-.23,19.93,19.93,0,0,0,5.92-2.58,32.52,32.52,0,0,0,5.17-4.14,48.75,48.75,0,0,0,4.37-4.89,88.14,88.14,0,0,0,7.33-10.76q3.29-5.69,6.53-11.37t6.86-11a58.45,58.45,0,0,1,8.41-9.87,41,41,0,0,1,6.2-4.79,34.08,34.08,0,0,1,7.14-3.38,8.4,8.4,0,0,0,1.36-.38,9.76,9.76,0,0,1,1.65-.42,10,10,0,0,1,1.64-.14,2.41,2.41,0,0,1,1.36.38c.44.31.63.63.56.94a1.76,1.76,0,0,1-.52.89,5.59,5.59,0,0,1-1,.8q-.61.38-1,.66a30.77,30.77,0,0,0-8.51,7.85,99.88,99.88,0,0,0-6.53,10q-1,1.6-2.16,3.29T1535.64,532.19Zm20,5.64a17.33,17.33,0,0,1,2.87,5.22,21.17,21.17,0,0,1-1.65,17.34,18.33,18.33,0,0,1-3.71,4.61,21.62,21.62,0,0,1-4.89,3.29,28.74,28.74,0,0,1-5.64,2.07,26.35,26.35,0,0,1-13,.09,21.71,21.71,0,0,1-6.63-2.82,22,22,0,0,1-2.12-1.6,6.79,6.79,0,0,1-1.64-2.16,4,4,0,0,1-.52-2q0-1.22,1.27-1.32a2.31,2.31,0,0,1,1.46.56,8.78,8.78,0,0,1,1.32,1.32q.61.75,1.17,1.55a5.71,5.71,0,0,0,1,1.17,8.67,8.67,0,0,0,5.59,1.88,15.93,15.93,0,0,0,5.88-1,18.32,18.32,0,0,0,5.17-2.91,24.6,24.6,0,0,0,4.18-4.28,25.2,25.2,0,0,0,3.05-5.17,23.27,23.27,0,0,0,1.69-5.69,18.24,18.24,0,0,0-.09-6.11,10.43,10.43,0,0,0-2.82-5.45,9.2,9.2,0,0,0-5.45-2.82,7.26,7.26,0,0,0-1.17-.14,9.17,9.17,0,0,1-1.6-.24,5.61,5.61,0,0,1-1.41-.52,1.06,1.06,0,0,1-.61-1,1.12,1.12,0,0,1,.66-1.08,5.3,5.3,0,0,1,1.55-.47,8.23,8.23,0,0,1,1.74-.09c.56,0,1,0,1.32,0a17.34,17.34,0,0,0,3.43-.52,18.2,18.2,0,0,0,3.24-1.17,23.84,23.84,0,0,0,9.78-8.37,21.64,21.64,0,0,0,2.68-5.31,17.51,17.51,0,0,0,1-5.73,12.62,12.62,0,0,0-1.22-5.45,12.3,12.3,0,0,0-3.85-4.56,18.08,18.08,0,0,0-5.31-2.68,28.74,28.74,0,0,0-5.87-1.17,35.59,35.59,0,0,0-6.06,0q-3.06.23-5.78.7a49.66,49.66,0,0,0-13,4.28,52,52,0,0,0-11.42,7.57,36.8,36.8,0,0,0-7.29,8.65,26.93,26.93,0,0,0-3.81,10.62,18.12,18.12,0,0,0,.14,4.32,6.59,6.59,0,0,0,1.93,3.76,5.74,5.74,0,0,0,2.4,1.46,12.08,12.08,0,0,0,2.82.52,11.4,11.4,0,0,0,2.91-.19,13.54,13.54,0,0,0,2.77-.85,7.16,7.16,0,0,0,2.26-1.27q.94-.8,2-1.74a5.51,5.51,0,0,0,.75-.66,5.87,5.87,0,0,1,1.08-.85,4.24,4.24,0,0,1,1.17-.52.83.83,0,0,1,.94.42,1.56,1.56,0,0,1-.14,1.74,9.8,9.8,0,0,1-1.6,1.93,25.73,25.73,0,0,1-2,1.74l-1.41,1.08a37.89,37.89,0,0,1-5,3,18.49,18.49,0,0,1-5.59,1.79,14,14,0,0,1-5.59-.28,10.27,10.27,0,0,1-5-3.15,11.46,11.46,0,0,1-2.54-4.56,18.72,18.72,0,0,1-.75-5.26,22.35,22.35,0,0,1,.66-5.36,27.46,27.46,0,0,1,1.69-4.93,34.23,34.23,0,0,1,7.33-10,58.16,58.16,0,0,1,9.87-7.57,66.3,66.3,0,0,1,11.19-5.5,65.38,65.38,0,0,1,12.27-3.38,52.7,52.7,0,0,1,12.55-.66,41,41,0,0,1,12.13,2.68,25,25,0,0,1,9.07,6.06,16.14,16.14,0,0,1,4.37,9.92,14.88,14.88,0,0,1-.38,5.78,17.61,17.61,0,0,1-2.3,5.12,20,20,0,0,1-3.76,4.23,24,24,0,0,1-4.84,3.2,53.69,53.69,0,0,1-5.87,2.58,18,18,0,0,1-6.34,1.17,10.58,10.58,0,0,1,4,2.16Q1554.06,536.33,1555.66,537.83Z" transform="translate(0 0)"/><path class="cls-3" d="M1607.36,546.85q.28.66-.66,2.16-1.88,2.63-3.38,4.65t-2.91,3.81q-1.41,1.79-2.87,3.57t-3.43,4q-1.13,1.13-2.68,2.44a21.4,21.4,0,0,1-3.29,2.3,11.27,11.27,0,0,1-3.57,1.32,5.93,5.93,0,0,1-3.53-.42,5.41,5.41,0,0,1-2.91-3.05,9.25,9.25,0,0,1-.38-4.18A16.61,16.61,0,0,1,1579,559q.94-2.21,1.79-3.81a24.17,24.17,0,0,1,2.92-4.37q1.69-2,3.52-3.95t3.62-3.85a47.88,47.88,0,0,0,3.38-4.09,7.16,7.16,0,0,0-2.44,0,4,4,0,0,1-2.35-.24,13.18,13.18,0,0,1-1.69-.56q-.66-.28-1.6.47-2.73,4.23-5.41,8.84t-5.73,9a73.18,73.18,0,0,1-6.63,8.18,35.65,35.65,0,0,1-8.08,6.44q-1.22.19-1.5-.61a1.78,1.78,0,0,1,.28-1.65,47.87,47.87,0,0,0,9.45-7.94,80.37,80.37,0,0,0,7.66-9.78,124.6,124.6,0,0,0,6.44-10.81q3-5.59,5.88-11a1.51,1.51,0,0,1,1,0,3.83,3.83,0,0,1,1,.47,12,12,0,0,1,1,.71,4.82,4.82,0,0,0,.85.56,8,8,0,0,0,2.45.71,9,9,0,0,0,2.44,0,16.2,16.2,0,0,0,3.15-.89,12.64,12.64,0,0,1,3.05-.8q1.13-.09,1.46.33a1.17,1.17,0,0,1,.19,1,4.62,4.62,0,0,1-.56,1.32c-.28.47-.55.89-.8,1.27q-3.29,4.14-6.16,8.46t-5.5,8.93q-.75,1.13-1.5,2.35t-1.41,2.49a13.68,13.68,0,0,0-1,2.58,7.9,7.9,0,0,0-.28,2.73,7.42,7.42,0,0,0,.38,2.16,1.24,1.24,0,0,0,1.5,1,7.52,7.52,0,0,0,3.53-2,43.41,43.41,0,0,0,4-4.18,64.75,64.75,0,0,0,4-5.26q1.93-2.82,3.53-5.08a11.52,11.52,0,0,1,1.08-1.46Q1606.42,546,1607.36,546.85Z" transform="translate(0 0)"/><path class="cls-3" d="M1629.45,532.19a47.4,47.4,0,0,1-3.15,6.81q-1.74,3.06-3.62,6-.75,1.22-1.55,2.44t-1.55,2.54q-1.32,2.35-2.82,4.7t-2.82,4.61a16.23,16.23,0,0,0-1,1.6,13.92,13.92,0,0,0-.89,2,7,7,0,0,0-.42,2.07,3.45,3.45,0,0,0,.52,2,1.91,1.91,0,0,0,1.13.85,3.62,3.62,0,0,0,2.77-.47,16.74,16.74,0,0,0,3.43-2.44,44.5,44.5,0,0,0,3.62-3.67q1.83-2.07,3.43-4.14t2.77-3.95A29.43,29.43,0,0,0,1631,550H1631l.38-.66.94-1.32q.47-.66.66.19a1.33,1.33,0,0,1,0,.66,3,3,0,0,1-.33,1v-.09a17.82,17.82,0,0,0-1.41,2.3q-.66,1.27-1.32,2.4-1.88,3.38-4,6.58a32.53,32.53,0,0,1-4.79,5.64,23.32,23.32,0,0,1-5.73,3.95,15.53,15.53,0,0,1-6.86,1.5,6.46,6.46,0,0,1-2.54-.52,4,4,0,0,1-2-2A6.61,6.61,0,0,1,1603,566a12.8,12.8,0,0,1,.8-4.37q.8-2.21,1.55-3.9,1.6-3.29,3.34-6.2t3.62-5.64q1.32-2.16,2.63-4.42l2.63-4.51a8.35,8.35,0,0,0,.89-2c.16-.59.33-1.21.52-1.83a1.51,1.51,0,0,1,0-.38,1.54,1.54,0,0,0,0-.38,8,8,0,0,0,.33-1,1.79,1.79,0,0,1,.42-.85,7.74,7.74,0,0,1,2.73-.56q1.69-.09,2.82-.09.85,0,1.93,0a8.35,8.35,0,0,0,2-.14v.19l.09.19q.09.47.14,1A2.67,2.67,0,0,1,1629.45,532.19ZM1628.13,517a6,6,0,0,1,.52-2.35,8.38,8.38,0,0,1,1.36-2.21,7.2,7.2,0,0,1,1.93-1.6,5.39,5.39,0,0,1,2.21-.71,3.69,3.69,0,0,1,2,.33,2.62,2.62,0,0,1,1.17,1.22,4.15,4.15,0,0,1,.38,1.79,5.16,5.16,0,0,1-.38,1.93,8.18,8.18,0,0,1-2.63,3.24,6,6,0,0,1-3.67,1.46,2.59,2.59,0,0,1-1.83-.75A4.11,4.11,0,0,1,1628.13,517Z" transform="translate(0 0)"/><path class="cls-3" d="M1635.75,570.54a7.11,7.11,0,0,1-2.44-2.58,10.22,10.22,0,0,1-1.13-3.29,15,15,0,0,1-.14-3.57,25.17,25.17,0,0,1,.52-3.52,28.35,28.35,0,0,1,3.62-7.85,56,56,0,0,1,5.31-6.81,68.43,68.43,0,0,1,6.63-6.49,31.17,31.17,0,0,1,7.85-4.89,27,27,0,0,1,3.71-1.32,13.24,13.24,0,0,1,3.9-.52,8.07,8.07,0,0,1,3.53.89,5.83,5.83,0,0,1,2.58,2.91,10,10,0,0,0,.94-1.27,4.53,4.53,0,0,1,1.88-1.74,4.38,4.38,0,0,1,1.5-.38,35.42,35.42,0,0,1,4-.14q2,0,3.85,0-5.36,9.5-10.9,18.61T1659.62,567l-4.75,7.61q-2.4,3.85-5.12,7.47a51,51,0,0,1-6,6.67,33.19,33.19,0,0,1-23.78,8.69q-1.31-.09-2.82-.33a12.58,12.58,0,0,1-2.87-.8,8.33,8.33,0,0,1-2.44-1.55,5.6,5.6,0,0,1-1.55-2.4,6,6,0,0,1,0-3.57,4.51,4.51,0,0,1,2.12-2.73,4.75,4.75,0,0,1,3.38-.85,3.06,3.06,0,0,1,2.73,2.07,2.86,2.86,0,0,1,.14,1.5,3.49,3.49,0,0,1-.52,1.22,8.71,8.71,0,0,0-.66,1.17,3.21,3.21,0,0,0-.28,1.36,2.37,2.37,0,0,0,.8,1.64,4.43,4.43,0,0,0,1.64.89,6.7,6.7,0,0,0,1.93.28,14.37,14.37,0,0,0,1.74-.09,15.18,15.18,0,0,0,4.61-1.27,20.37,20.37,0,0,0,4.09-2.49,26.11,26.11,0,0,0,3.57-3.38q1.64-1.88,3.05-3.76a101.74,101.74,0,0,0,6.39-9.54q2.91-4.94,5.64-10-1.41,1.32-3.2,2.73a23.74,23.74,0,0,1-3.67,2.4,11.91,11.91,0,0,1-3.95,1.27A7,7,0,0,1,1635.75,570.54Zm6.67-4.79a8.64,8.64,0,0,0,4.14-.8,13.52,13.52,0,0,0,3.48-2.4,30.14,30.14,0,0,0,3-3.29q1.41-1.78,2.54-3.38,1.5-2.16,3.1-4.28t3.1-4.32a39.51,39.51,0,0,0,2.68-4.56,30,30,0,0,0,1.93-4.89,12.6,12.6,0,0,0,.33-1.65,7.69,7.69,0,0,0,0-1.88,2.92,2.92,0,0,0-.56-1.5,1.78,1.78,0,0,0-1.5-.61,4.71,4.71,0,0,0-2.3.42,13.34,13.34,0,0,0-2.26,1.27,20.79,20.79,0,0,0-2.07,1.65q-1,.89-1.74,1.64a68.36,68.36,0,0,0-7.19,8.46,97.14,97.14,0,0,0-6,9.4l-1.22,2.49a22.12,22.12,0,0,0-1.36,3.52,7.22,7.22,0,0,0-.28,3.2Q1640.54,565.65,1642.42,565.75Z" transform="translate(0 0)"/><path class="cls-3" d="M1708.13,503.52a4.74,4.74,0,0,1,.47-1.5,1.86,1.86,0,0,1,1.32-.66,34,34,0,0,0,3.48-.61,10.34,10.34,0,0,1,3.48-.24q1.5.19,1.64,1.32a6,6,0,0,1-.33,2.58,14.26,14.26,0,0,1-1.27,2.82l-1.17,2q-3.95,6.77-7.9,13.35t-8.08,13.25q1.6-1.22,3.34-2.59a28.74,28.74,0,0,1,3.57-2.4,14.54,14.54,0,0,1,3.85-1.5,10.43,10.43,0,0,1,4.18-.09,5.39,5.39,0,0,1,2.68,1.13,4.75,4.75,0,0,1,1.41,2,6.75,6.75,0,0,1,.38,2.54,12.5,12.5,0,0,1-.42,2.77,22.13,22.13,0,0,1-3,6.67q-2.07,3.1-4,6.11-.85,1.41-1.88,2.82t-2,2.91q-1,1.5-1.83,3a15.72,15.72,0,0,0-1.32,3q-.66,2.07.52,2.58a3.12,3.12,0,0,0,2.77-.33,48.19,48.19,0,0,0,9.17-8.18,107.19,107.19,0,0,0,7.57-9.78,1.77,1.77,0,0,1,1.55-.85q.8.1.33,1.5l-5.12,7.05A83.05,83.05,0,0,1,1716,561a44.05,44.05,0,0,1-6.3,5.78,28.13,28.13,0,0,1-7.75,4.09,10.64,10.64,0,0,1-2.21.14,5.66,5.66,0,0,1-2.12-.52,4.13,4.13,0,0,1-2.21-2.35,6.82,6.82,0,0,1-.28-3.2,15.8,15.8,0,0,1,.89-3.43,24.83,24.83,0,0,1,1.32-3q1.79-3.57,3.85-6.86t4.23-6.58q.47-.75,1.5-2.3a33.94,33.94,0,0,0,1.93-3.29,11.86,11.86,0,0,0,1.17-3.34,2.49,2.49,0,0,0-.66-2.44,2.2,2.2,0,0,0-2.21,0,19.78,19.78,0,0,0-3.05,1.64,26.86,26.86,0,0,0-3,2.21,19.67,19.67,0,0,0-1.93,1.83,64.15,64.15,0,0,0-5.36,7q-2.44,3.67-4.7,7.47t-4.46,7.66q-2.21,3.86-4.65,7.52a3.32,3.32,0,0,1-2.58,1.79H1674a5.7,5.7,0,0,0-1.46,0,2.64,2.64,0,0,1-1.46-.19,1,1,0,0,1-.47-1.36,11.81,11.81,0,0,1,.89-2.16,17.61,17.61,0,0,1,1.36-2.21q.75-1,1-1.5,7.52-12.69,15-25.47t14.57-25.66q1.32-2.16,2.73-4.28A12.37,12.37,0,0,0,1708.13,503.52Z" transform="translate(0 0)"/><path class="cls-3" d="M1739.43,520.06h8l4-5.83,1-1.88v.09q1.22-2.26,2.54-4.75a21.92,21.92,0,0,0,1.88-4.65.58.58,0,0,1,.09-.33.58.58,0,0,0,.09-.33c.12-.38.28-.78.47-1.22a3.27,3.27,0,0,1,.66-1,6.45,6.45,0,0,1,2.26-.56,29,29,0,0,1,3.38-.19,30.86,30.86,0,0,1,3.57.19q1.6.19,1.41.56a24.84,24.84,0,0,1-.94,2.82,37.14,37.14,0,0,1-1.93,4q-1.27,2.35-3.29,5.59t-4.94,7.47h6.2v3.29h-8q-3,4.51-6.35,9.73t-6.39,10.53q-3.06,5.31-5.55,10.29A56.37,56.37,0,0,0,1734,563q-.66,2.45.89,3.34a4.33,4.33,0,0,0,3.71.14,10.13,10.13,0,0,0,3.1-2.07q1.78-1.6,3.85-3.85t4.18-4.84q2.11-2.59,4-5t3.38-4.46l2.21-3.06a1.45,1.45,0,0,0,.28-.38,1.06,1.06,0,0,1,.19-.28c.25,0,.44.16.56.47a18.58,18.58,0,0,1-1.74,3.53q-1.36,2.3-3.43,5.12t-4.7,5.92a62.22,62.22,0,0,1-5.64,5.83,55.94,55.94,0,0,1-6.2,4.89,25.39,25.39,0,0,1-6.39,3.2,8.46,8.46,0,0,1-5.59-.94,5.78,5.78,0,0,1-2.87-4.7,16.28,16.28,0,0,1,.61-4.93,34,34,0,0,1,2.68-6.39q2-3.81,5.31-9.4t8.41-13.87l4.89-7.9h-6.3Z" transform="translate(0 0)"/><path class="cls-3" d="M1760,563.4a3.6,3.6,0,0,0,1.5,2.87,4.55,4.55,0,0,0,2.87.52,11.34,11.34,0,0,0,3.34-.94,19.06,19.06,0,0,0,2.82-1.5,30.62,30.62,0,0,0,5.31-4.18q2.68-2.59,5-5.26t4.23-5q1.88-2.35,3-3.57.66-.75.89-.33a1.62,1.62,0,0,1,0,1.17,14.32,14.32,0,0,1-1.88,3.43,50,50,0,0,1-3.38,4.28q-2,2.26-4.28,4.61t-4.56,4.32q-2.26,2-4.18,3.48a23.92,23.92,0,0,1-3.15,2.16,16.56,16.56,0,0,1-4.09,1.64,15.08,15.08,0,0,1-4.51.52,9.5,9.5,0,0,1-4.14-1.13,7.28,7.28,0,0,1-3.06-3.29,10.26,10.26,0,0,1-1-4.23,18.46,18.46,0,0,1,.47-4.51,26.41,26.41,0,0,1,1.41-4.37,42.94,42.94,0,0,1,1.93-4,40.51,40.51,0,0,1,6.67-9.4,42.06,42.06,0,0,1,9-7.14,27.41,27.41,0,0,1,5.12-2.63,28.17,28.17,0,0,1,5.5-1.5,13,13,0,0,1,3.85-.19,3.8,3.8,0,0,1,3.1,2,4.5,4.5,0,0,1,.75,2.77,9.3,9.3,0,0,1-.66,2.87,12,12,0,0,1-1.46,2.63,18.5,18.5,0,0,1-1.83,2.16,24.68,24.68,0,0,1-5.12,4.23,49.43,49.43,0,0,1-5.78,3.1q-1.6.66-3.15,1.17t-3.24,1a18,18,0,0,1-2.26.28,2.76,2.76,0,0,0-2,.85,5.09,5.09,0,0,0-1.17,2.26,18.07,18.07,0,0,1-.89,2.54,15.28,15.28,0,0,0-1,3.15A10.22,10.22,0,0,0,1760,563.4Zm4.61-14.1a11.3,11.3,0,0,0,6-2.07,57.68,57.68,0,0,0,5.12-4A25.37,25.37,0,0,0,1778,541a18.25,18.25,0,0,0,1.93-2.49q.56-1,1.32-2.58a5.51,5.51,0,0,0,.66-2.77q-.09-1-.66-1.22a2.1,2.1,0,0,0-1.41.14,8.61,8.61,0,0,0-1.83,1,21.92,21.92,0,0,0-1.83,1.46q-.85.75-1.5,1.46l-.85.89a49.18,49.18,0,0,0-4.93,6Q1766.69,546,1764.62,549.3Z" transform="translate(0 0)"/><path class="cls-3" d="M1816.88,529.84a4.18,4.18,0,0,1-.47,1.46q-.38.7-.85,1.46l-.94,1.41a35.74,35.74,0,0,0-1.27,4.75l-1,4.93v-.09q-.85,3.95-1.79,7.8a40.46,40.46,0,0,1-2.54,7.33,26.51,26.51,0,0,1-4.09,6.35,18.42,18.42,0,0,1-6.44,4.65,17.15,17.15,0,0,1-3.38,1.17,15.84,15.84,0,0,1-3.67.42,11.79,11.79,0,0,1-4.51-.85,5.87,5.87,0,0,1-2.3-1.88,4.25,4.25,0,0,1-.89-2.54,4.16,4.16,0,0,1,.38-1.69,4.77,4.77,0,0,1,1.22-1.6,6.7,6.7,0,0,1,1.74-.94,2.28,2.28,0,0,1,2,0,1.22,1.22,0,0,1,.56,1.08,6,6,0,0,1-.19,1.46,2.82,2.82,0,0,0-.09.85,4.53,4.53,0,0,0,.61,2.16,1.49,1.49,0,0,0,1.65.94,2.91,2.91,0,0,0,1.6-.56,12.49,12.49,0,0,0,1.65-1.32q.8-.75,1.46-1.5t1-1.22a60.31,60.31,0,0,0,5.22-12.6q1.92-6.67,3.24-13.16-1.6,1.79-3,3.52l-2.91,3.62q-5.08,6.3-10.34,12.46a101.08,101.08,0,0,1-11.47,11.42q-.75.56-1.55,1.08a4.93,4.93,0,0,1-1.74.71,1.39,1.39,0,0,1-1.55-.33,2,2,0,0,1-.24-1.83,2.63,2.63,0,0,1,1-1.46,10.08,10.08,0,0,1,1.6-.89l1-.66a50.81,50.81,0,0,0,6.91-5.26,81.16,81.16,0,0,0,6.34-6.39q3-3.38,5.83-6.91t5.36-6.91q1.6-2.16,3.15-4.18t3.15-3.9a5.78,5.78,0,0,1,1.69-1.6,6.69,6.69,0,0,1,2-.8,10,10,0,0,1,2.21-.24q1.17,0,2.4.09v-.09c.31,0,.64,0,1,0s.67,0,1,0Z" transform="translate(0 0)"/><path class="cls-3" d="M1833.33,520.06h8l4-5.83,1-1.88v.09q1.22-2.26,2.54-4.75a21.92,21.92,0,0,0,1.88-4.65.58.58,0,0,1,.09-.33.58.58,0,0,0,.09-.33c.12-.38.28-.78.47-1.22a3.27,3.27,0,0,1,.66-1,6.45,6.45,0,0,1,2.26-.56,29,29,0,0,1,3.38-.19,30.86,30.86,0,0,1,3.57.19q1.6.19,1.41.56a24.84,24.84,0,0,1-.94,2.82,37.14,37.14,0,0,1-1.93,4q-1.27,2.35-3.29,5.59t-4.94,7.47h6.2v3.29h-8q-3,4.51-6.35,9.73t-6.39,10.53q-3.06,5.31-5.55,10.29a56.37,56.37,0,0,0-3.71,9.12q-.66,2.45.89,3.34a4.33,4.33,0,0,0,3.71.14,10.13,10.13,0,0,0,3.1-2.07q1.78-1.6,3.85-3.85t4.18-4.84q2.11-2.59,4-5t3.38-4.46l2.21-3.06a1.45,1.45,0,0,0,.28-.38,1.06,1.06,0,0,1,.19-.28c.25,0,.44.16.56.47a18.58,18.58,0,0,1-1.74,3.53q-1.36,2.3-3.43,5.12t-4.7,5.92a62.22,62.22,0,0,1-5.64,5.83,55.94,55.94,0,0,1-6.2,4.89,25.39,25.39,0,0,1-6.39,3.2,8.46,8.46,0,0,1-5.59-.94,5.78,5.78,0,0,1-2.87-4.7,16.28,16.28,0,0,1,.61-4.93,34,34,0,0,1,2.68-6.39q2-3.81,5.31-9.4t8.41-13.87l4.89-7.9h-6.3Z" transform="translate(0 0)"/><path class="cls-3" d="M1942.46,517.24q1.88,4.51,3.71,9.45a54.77,54.77,0,0,1,2.68,9.92,36.67,36.67,0,0,1,.33,10,23.41,23.41,0,0,1-3.24,9.59,19.42,19.42,0,0,1-4.09,5.41,39.43,39.43,0,0,1-5.4,4.18,40.93,40.93,0,0,1-6.39,3.34,40.26,40.26,0,0,1-7.24,2.26,32.28,32.28,0,0,1-7.52.71,22.59,22.59,0,0,1-7.14-1.32,21.54,21.54,0,0,1-5.37-2.91,15.93,15.93,0,0,1-4.18-4.51,17.63,17.63,0,0,1-2.24-6.3,31.89,31.89,0,0,1-.33-6.67,20.74,20.74,0,0,1,1.19-6.3,30.27,30.27,0,0,1,2.86-5.92,35.29,35.29,0,0,1,4-5.26,44.76,44.76,0,0,1,4.71-4.42,24.36,24.36,0,0,1,5-3,23.38,23.38,0,0,1,6.16-1.93,14.61,14.61,0,0,1,6.06.23,7.78,7.78,0,0,1,4.7,3.57,10.15,10.15,0,0,1,1.32,3.24,15.11,15.11,0,0,1,.33,3.57,20.16,20.16,0,0,1-.42,3.62A22.7,22.7,0,0,1,1931,541a11.07,11.07,0,0,1-2.07,3.9,20.41,20.41,0,0,1-2.82,2.58q-.66.47-.8.24a1.28,1.28,0,0,1-.09-.75,4.23,4.23,0,0,1,.28-1.13,4.75,4.75,0,0,1,.42-.89,5.29,5.29,0,0,0,.8-2.16,10.43,10.43,0,0,1,.52-2.35,10.49,10.49,0,0,0-.19-5.55,12.09,12.09,0,0,0-2.54-4.79,8.45,8.45,0,0,0-5.12-2.77,10.06,10.06,0,0,0-5.78.89,14.37,14.37,0,0,0-4.75,4,31,31,0,0,0-3.34,5.22,22.08,22.08,0,0,0-2.21,5.88,22.62,22.62,0,0,0-.52,6.34,27.79,27.79,0,0,0,1.08,6.16,21,21,0,0,0,2.54,5.59,16.9,16.9,0,0,0,4.09,4.37,14,14,0,0,0,5.83,2.49,17.61,17.61,0,0,0,6.44.14,19.67,19.67,0,0,0,6.16-1.93,16.05,16.05,0,0,0,5.12-4.28,34.69,34.69,0,0,0,3.62-5.59,18.94,18.94,0,0,0,2.12-6.16A26.49,26.49,0,0,0,1940,544a29.06,29.06,0,0,0-1.32-6.44,37.14,37.14,0,0,0-2.54-6,38.51,38.51,0,0,1-3.29-9.59,30.56,30.56,0,0,1-.42-10,24.79,24.79,0,0,1,3.05-9.21,21,21,0,0,1,7.14-7.33,19.62,19.62,0,0,1,5.45-2.87,18.91,18.91,0,0,1,6.25-1.08,14.06,14.06,0,0,1,5.92,1.27,11.15,11.15,0,0,1,4.65,4.09,12.35,12.35,0,0,1,2,6.2,17.74,17.74,0,0,1-.94,6.77,17.07,17.07,0,0,1-3.43,5.87,11.67,11.67,0,0,1-5.5,3.52,6.08,6.08,0,0,1-2.21.38c-.41-.06-.61-.22-.61-.47a1.42,1.42,0,0,1,.38-.85,3.14,3.14,0,0,1,.85-.75,8.76,8.76,0,0,0,2.12-2.4l1.64-2.68a13,13,0,0,0,1.55-6.2,15.32,15.32,0,0,0-1.22-6.39,9.81,9.81,0,0,0-3.81-4.51,7.67,7.67,0,0,0-6.2-.66,13.09,13.09,0,0,0-5,4.09,17.33,17.33,0,0,0-2.73,5.69,20,20,0,0,0-.66,6.44A21.38,21.38,0,0,0,1942.46,517.24Z" transform="translate(0 0)"/><path class="cls-3" d="M1968.6,520.06h8l4-5.83,1-1.88v.09q1.22-2.26,2.54-4.75a21.92,21.92,0,0,0,1.88-4.65.58.58,0,0,1,.09-.33.58.58,0,0,0,.09-.33c.12-.38.28-.78.47-1.22a3.27,3.27,0,0,1,.66-1,6.45,6.45,0,0,1,2.26-.56,29,29,0,0,1,3.38-.19,30.86,30.86,0,0,1,3.57.19q1.6.19,1.41.56a24.84,24.84,0,0,1-.94,2.82,37.14,37.14,0,0,1-1.93,4q-1.27,2.35-3.29,5.59t-4.94,7.47h6.2v3.29h-8q-3,4.51-6.35,9.73t-6.39,10.53q-3.06,5.31-5.55,10.29a56.37,56.37,0,0,0-3.71,9.12q-.66,2.45.89,3.34a4.33,4.33,0,0,0,3.71.14,10.13,10.13,0,0,0,3.1-2.07q1.78-1.6,3.85-3.85t4.18-4.84q2.11-2.59,4-5t3.38-4.46l2.21-3.06a1.45,1.45,0,0,0,.28-.38,1.06,1.06,0,0,1,.19-.28c.25,0,.44.16.56.47a18.58,18.58,0,0,1-1.74,3.53q-1.36,2.3-3.43,5.12t-4.7,5.92a62.22,62.22,0,0,1-5.64,5.83,55.94,55.94,0,0,1-6.2,4.89,25.39,25.39,0,0,1-6.39,3.2,8.46,8.46,0,0,1-5.59-.94,5.78,5.78,0,0,1-2.87-4.7,16.28,16.28,0,0,1,.61-4.93,34,34,0,0,1,2.68-6.39q2-3.81,5.31-9.4t8.41-13.87l4.89-7.9h-6.3Z" transform="translate(0 0)"/><path class="cls-3" d="M2021,530h9.4q-3.95,7-7.71,13.91t-8,13.54a20.6,20.6,0,0,0-1.17,2.26,18.32,18.32,0,0,0-1.22,3.38,5.47,5.47,0,0,0-.09,2.82q.33,1.13,2.21.56a19.71,19.71,0,0,0,4.65-3.67,42.09,42.09,0,0,0,3.76-4.65q1.74-2.49,3.43-5a41.52,41.52,0,0,1,3.67-4.65q.75-.75,1.22-.56a2.06,2.06,0,0,1,.66.38,4.28,4.28,0,0,1-.47.85,64.49,64.49,0,0,0-4.79,6.49,78.8,78.8,0,0,1-4.84,6.67A35.88,35.88,0,0,1,2016,568a17.91,17.91,0,0,1-7.24,3.38,4.1,4.1,0,0,1-3.2-.94,5.35,5.35,0,0,1-1.41-2.63,13.16,13.16,0,0,1-.33-3.38q0-1.78.24-3.29-1,1.13-2.68,2.77t-3.62,3.34a37.32,37.32,0,0,1-4.09,3.05,12.38,12.38,0,0,1-4.14,1.79,5.89,5.89,0,0,1-3.76-.38,6.21,6.21,0,0,1-2.87-3.43,12.26,12.26,0,0,1-1-5.31,19.54,19.54,0,0,1,.94-5.31,28.18,28.18,0,0,1,2.21-5.08q1.36-2.44,2.77-4.61a48.24,48.24,0,0,1,7.19-8.55,45.06,45.06,0,0,1,9-6.58,35.88,35.88,0,0,1,3.9-1.83,15.16,15.16,0,0,1,4.32-1.08,7.44,7.44,0,0,1,3.9.66,5.67,5.67,0,0,1,2.73,3.38q.56-1,1.13-2A19.62,19.62,0,0,0,2021,530Zm-12.41,21.43a24.87,24.87,0,0,1,1.36-2.16q1.08-1.6,2.3-3.67a49,49,0,0,0,2.3-4.42,21.12,21.12,0,0,0,1.5-4.32,6.07,6.07,0,0,0,0-3.29q-.47-1.32-2.54-1.5a8.74,8.74,0,0,0-3,1.17,19.67,19.67,0,0,0-2.87,2.16,34.68,34.68,0,0,0-2.63,2.63q-1.22,1.36-2.35,2.58-2.26,3-4.42,6.2t-4,6.49l-1.41,2.58a27.74,27.74,0,0,0-1.5,3.24,15,15,0,0,0-.89,3.34,4.17,4.17,0,0,0,.52,2.87,2.46,2.46,0,0,0,1.74,1.41,4.46,4.46,0,0,0,2.21-.19,9.53,9.53,0,0,0,2.21-1.08,10.93,10.93,0,0,0,1.74-1.36,48.19,48.19,0,0,0,5.36-5.92A54.4,54.4,0,0,0,2008.55,551.46Z" transform="translate(0 0)"/><path class="cls-3" d="M2066.45,546.85q.28.66-.66,2.16-1.88,2.63-3.38,4.65t-2.91,3.81q-1.41,1.79-2.87,3.57t-3.43,4q-1.13,1.13-2.68,2.44a21.45,21.45,0,0,1-3.29,2.3,11.27,11.27,0,0,1-3.57,1.32,5.93,5.93,0,0,1-3.53-.42,5.41,5.41,0,0,1-2.91-3.05,9.23,9.23,0,0,1-.38-4.18,16.61,16.61,0,0,1,1.22-4.46q.94-2.21,1.79-3.81a24.16,24.16,0,0,1,2.91-4.37q1.69-2,3.52-3.95t3.62-3.85a47.87,47.87,0,0,0,3.38-4.09,7.16,7.16,0,0,0-2.44,0,4,4,0,0,1-2.35-.24,13.13,13.13,0,0,1-1.69-.56q-.66-.28-1.6.47-2.73,4.23-5.4,8.84t-5.73,9a73.18,73.18,0,0,1-6.63,8.18,35.65,35.65,0,0,1-8.08,6.44c-.81.12-1.32-.08-1.5-.61a1.79,1.79,0,0,1,.28-1.65,47.86,47.86,0,0,0,9.45-7.94,80.37,80.37,0,0,0,7.66-9.78,124.85,124.85,0,0,0,6.44-10.81q3-5.59,5.88-11a1.51,1.51,0,0,1,1,0,3.81,3.81,0,0,1,1,.47,12,12,0,0,1,1,.71,4.79,4.79,0,0,0,.85.56,8,8,0,0,0,2.44.71,9,9,0,0,0,2.44,0,16.22,16.22,0,0,0,3.15-.89,12.62,12.62,0,0,1,3.05-.8q1.13-.09,1.46.33a1.17,1.17,0,0,1,.19,1,4.6,4.6,0,0,1-.56,1.32c-.28.47-.55.89-.8,1.27q-3.29,4.14-6.16,8.46t-5.5,8.93q-.75,1.13-1.5,2.35t-1.41,2.49a13.81,13.81,0,0,0-1,2.58,7.88,7.88,0,0,0-.28,2.73,7.45,7.45,0,0,0,.38,2.16,1.24,1.24,0,0,0,1.5,1,7.52,7.52,0,0,0,3.53-2,43.53,43.53,0,0,0,4-4.18,64.75,64.75,0,0,0,4-5.26q1.93-2.82,3.53-5.08a11.51,11.51,0,0,1,1.08-1.46Q2065.51,546,2066.45,546.85Z" transform="translate(0 0)"/></svg>